<svg class="koinonika__icon koinonika__icon--vk" xmlns="http://www.w3.org/2000/svg" width="533.333" height="533.333" viewBox="-3.6 -6 13.867 24"><path fill="#0077ff" fill-rule="evenodd" d="M6.936-6c6.72 0 8.32 1.6 8.32 8.32v7.36c0 6.72-1.6 8.32-8.32 8.32h-7.36c-6.72 0-8.32-1.6-8.32-8.32V2.32c0-6.72 1.6-8.32 8.32-8.32zm-9.18 7.5h-1.75c-.5 0-.6.24-.6.49 0 .47.59 2.77 2.76 5.81a6.85 6.85 0 0 0 5.34 3.2c1.11 0 1.25-.25 1.25-.68V8.75c0-.5.11-.6.46-.6.35 0 .7.13 1.74 1.13 1.19 1.19 1.38 1.72 2.05 1.72h1.75c.5 0 .75-.25.61-.74a7.43 7.43 0 0 0-1.48-2.05c-.41-.49-1-1-1.21-1.26-.21-.26-.18-.49 0-.78a21.83 21.83 0 0 0 2.36-4c.11-.37 0-.64-.53-.64h-1.75a.77.77 0 0 0-.76.49 14.67 14.67 0 0 1-2.15 3.58c-.41.41-.6.54-.82.54-.22 0-.27-.13-.27-.5v-3.5c0-.44-.13-.64-.5-.64h-2.75a.43.43 0 0 0-.45.4c0 .42.64.52.7 1.71v2.57c0 .57-.1.67-.32.67-.6 0-2-2.18-2.9-4.67-.16-.48-.28-.68-.78-.68z"/></svg>